<?xml version="1.0" encoding="UTF-8"?>
<svg width="32px" height="32px" viewBox="0 0 32 32" version="1.1" xmlns="http://www.w3.org/2000/svg" xmlns:xlink="http://www.w3.org/1999/xlink">
    <!-- Generator: Sketch 42 (36781) - http://www.bohemiancoding.com/sketch -->
    <title>Icons / add</title>
    <desc>Created with Sketch.</desc>
    <defs></defs>
    <g id="Symbols" stroke="none" stroke-width="1" fill="none" fill-rule="evenodd">
        <g id="Icons-/-add" fill="#232437">
            <path d="M17.5699816,22.1482505 C17.3977901,22.320442 17.1546961,22.4217311 16.9116022,22.4217311 L15.0883978,22.4217311 C14.8453039,22.4217311 14.6022099,22.320442 14.4300184,22.1482505 C14.2578269,21.9760589 14.1666667,21.7430939 14.1666667,21.5 L14.1666667,17.8333333 L10.5,17.8333333 C10.2569061,17.8333333 10.0239411,17.7421731 9.85174954,17.5699816 C9.67955801,17.3977901 9.57826888,17.1546961 9.57826888,16.9116022 L9.57826888,15.0883978 C9.57826888,14.8453039 9.67955801,14.6022099 9.85174954,14.4300184 C10.0239411,14.2578269 10.2569061,14.1666667 10.5,14.1666667 L14.1666667,14.1666667 L14.1666667,10.5 C14.1666667,10.2569061 14.2578269,10.0239411 14.4300184,9.85174954 C14.6022099,9.67955801 14.8453039,9.57826888 15.0883978,9.57826888 L16.9116022,9.57826888 C17.1546961,9.57826888 17.3977901,9.67955801 17.5699816,9.85174954 C17.7421731,10.0239411 17.8333333,10.2569061 17.8333333,10.5 L17.8333333,14.1666667 L21.5,14.1666667 C21.7430939,14.1666667 21.9760589,14.2578269 22.1482505,14.4300184 C22.320442,14.6022099 22.4217311,14.8453039 22.4217311,15.0883978 L22.4217311,16.9116022 C22.4217311,17.1546961 22.320442,17.3977901 22.1482505,17.5699816 C21.9760589,17.7421731 21.7430939,17.8333333 21.5,17.8333333 L17.8333333,17.8333333 L17.8333333,21.5 C17.8333333,21.7430939 17.7421731,21.9760589 17.5699816,22.1482505 Z M23.7790055,23.7790055 C28.0736648,19.4843462 28.0736648,12.5156538 23.7790055,8.22099448 C19.4843462,3.92633517 12.5156538,3.92633517 8.22099448,8.22099448 C3.92633517,12.5156538 3.92633517,19.4843462 8.22099448,23.7790055 C12.5156538,28.0736648 19.4843462,28.0736648 23.7790055,23.7790055 Z" id="circle-plus"></path>
        </g>
    </g>
</svg>