<?xml version="1.0" encoding="UTF-8"?>
<svg width="32px" height="32px" viewBox="0 0 32 32" version="1.1" xmlns="http://www.w3.org/2000/svg" xmlns:xlink="http://www.w3.org/1999/xlink">
    <!-- Generator: Sketch 42 (36781) - http://www.bohemiancoding.com/sketch -->
    <title>Icons / archive</title>
    <desc>Created with Sketch.</desc>
    <defs></defs>
    <g id="Symbols" stroke="none" stroke-width="1" fill="none" fill-rule="evenodd">
        <g id="Icons-/-archive" fill="#232437">
            <path d="M19.2307692,14.55 C19.2307692,15.1242187 18.7427885,15.6 18.1538462,15.6 L13.8461538,15.6 C13.2572115,15.6 12.7692308,15.1242187 12.7692308,14.55 C12.7692308,13.9757812 13.2572115,13.5 13.8461538,13.5 L18.1538462,13.5 C18.7427885,13.5 19.2307692,13.9757812 19.2307692,14.55 Z M28.9230769,11.4 C28.9230769,10.8257812 28.4350962,10.35 27.8461538,10.35 L4.15384615,10.35 C3.56490385,10.35 3.07692308,10.8257812 3.07692308,11.4 L3.07692308,27.15 C3.07692308,27.7242187 3.56490385,28.2 4.15384615,28.2 L27.8461538,28.2 C28.4350962,28.2 28.9230769,27.7242187 28.9230769,27.15 L28.9230769,11.4 Z M30,4.05 C30,3.47578125 29.5120192,3 28.9230769,3 L3.07692308,3 C2.48798077,3 2,3.47578125 2,4.05 L2,8.25 C2,8.82421875 2.48798077,9.3 3.07692308,9.3 L28.9230769,9.3 C29.5120192,9.3 30,8.82421875 30,8.25 L30,4.05 Z" id="archive"></path>
        </g>
    </g>
</svg>