<?xml version="1.0" encoding="UTF-8"?>
<svg width="32px" height="32px" viewBox="0 0 32 32" version="1.1" xmlns="http://www.w3.org/2000/svg" xmlns:xlink="http://www.w3.org/1999/xlink">
    <!-- Generator: Sketch 42 (36781) - http://www.bohemiancoding.com/sketch -->
    <title>Icons / back-cancel</title>
    <desc>Created with Sketch.</desc>
    <defs></defs>
    <g id="Symbols" stroke="none" stroke-width="1" fill="none" fill-rule="evenodd">
        <g id="Icons-/-back-cancel" fill="#232437">
            <path d="M21.6613226,5.09087591 C21.6613226,4.86415443 21.5605575,4.66262422 21.4094099,4.51147656 L20.1498461,3.25191276 C19.9986984,3.1007651 19.7719769,3 19.5704467,3 C19.3689165,3 19.142195,3.1007651 18.9910474,3.25191276 L7.25191276,14.9910474 C7.1007651,15.142195 7,15.3689165 7,15.5704467 C7,15.7719769 7.1007651,15.9986984 7.25191276,16.1498461 L18.9910474,27.8889807 C19.142195,28.0401284 19.3689165,28.1408935 19.5704467,28.1408935 C19.7719769,28.1408935 19.9986984,28.0401284 20.1498461,27.8889807 L21.4094099,26.6294169 C21.5605575,26.4782693 21.6613226,26.2515478 21.6613226,26.0500176 C21.6613226,25.8484874 21.5605575,25.6217659 21.4094099,25.4706182 L11.5092384,15.5704467 L21.4094099,5.67027526 C21.5605575,5.5191276 21.6613226,5.29240612 21.6613226,5.09087591 Z" id="angle-left"></path>
        </g>
    </g>
</svg>