<?xml version="1.0" encoding="UTF-8"?>
<svg width="32px" height="32px" viewBox="0 0 32 32" version="1.1" xmlns="http://www.w3.org/2000/svg" xmlns:xlink="http://www.w3.org/1999/xlink">
    <!-- Generator: Sketch 42 (36781) - http://www.bohemiancoding.com/sketch -->
    <title>Icons / burger</title>
    <desc>Created with Sketch.</desc>
    <defs></defs>
    <g id="Symbols" stroke="none" stroke-width="1" fill="none" fill-rule="evenodd">
        <g id="Icons-/-burger" fill="#232437">
            <path d="M32.0040001,25.6695001 C32.0040001,24.9402423 31.3997579,24.3360001 30.6705001,24.3360001 L1.3335,24.3360001 C0.604242189,24.3360001 0,24.9402423 0,25.6695001 L0,28.3365001 C0,29.0657579 0.604242189,29.6700001 1.3335,29.6700001 L30.6705001,29.6700001 C31.3997579,29.6700001 32.0040001,29.0657579 32.0040001,28.3365001 L32.0040001,25.6695001 Z M32.0040001,15.0015 C32.0040001,14.2722422 31.3997579,13.668 30.6705001,13.668 L1.3335,13.668 C0.604242189,13.668 0,14.2722422 0,15.0015 L0,17.6685 C0,18.3977579 0.604242189,19.002 1.3335,19.002 L30.6705001,19.002 C31.3997579,19.002 32.0040001,18.3977579 32.0040001,17.6685 L32.0040001,15.0015 Z M32.0040001,4.3335 C32.0040001,3.60424219 31.3997579,3 30.6705001,3 L1.3335,3 C0.604242189,3 0,3.60424219 0,4.3335 L0,7.00050001 C0,7.72975783 0.604242189,8.33400002 1.3335,8.33400002 L30.6705001,8.33400002 C31.3997579,8.33400002 32.0040001,7.72975783 32.0040001,7.00050001 L32.0040001,4.3335 Z" id="hamburger"></path>
        </g>
    </g>
</svg>