<?xml version="1.0" encoding="UTF-8"?>
<svg width="32px" height="32px" viewBox="0 0 32 32" version="1.1" xmlns="http://www.w3.org/2000/svg" xmlns:xlink="http://www.w3.org/1999/xlink">
    <!-- Generator: Sketch 42 (36781) - http://www.bohemiancoding.com/sketch -->
    <title>Icons / cancel</title>
    <desc>Created with Sketch.</desc>
    <defs></defs>
    <g id="Symbols" stroke="none" stroke-width="1" fill="none" fill-rule="evenodd">
        <g id="Icons-/-cancel" fill="#232437">
            <path d="M21.4570312,19.2369792 C21.4570312,19.4804688 21.3567708,19.7239583 21.1848958,19.8958333 L19.8958333,21.1848958 C19.7239583,21.3567708 19.4804688,21.4570312 19.2369792,21.4570312 C18.9934896,21.4570312 18.7643229,21.3567708 18.5924479,21.1848958 L16,18.5924479 L13.4075521,21.1848958 C13.2356771,21.3567708 13.0065104,21.4570312 12.7630208,21.4570312 C12.5195312,21.4570312 12.2760417,21.3567708 12.1041667,21.1848958 L10.8151042,19.8958333 C10.6432292,19.7239583 10.5429688,19.4804688 10.5429688,19.2369792 C10.5429688,18.9934896 10.6432292,18.7643229 10.8151042,18.5924479 L13.4075521,16 L10.8151042,13.4075521 C10.6432292,13.2356771 10.5429688,13.0065104 10.5429688,12.7630208 C10.5429688,12.5195312 10.6432292,12.2760417 10.8151042,12.1041667 L12.1041667,10.8151042 C12.2760417,10.6432292 12.5195312,10.5429688 12.7630208,10.5429688 C13.0065104,10.5429688 13.2356771,10.6432292 13.4075521,10.8151042 L16,13.4075521 L18.5924479,10.8151042 C18.7643229,10.6432292 18.9934896,10.5429688 19.2369792,10.5429688 C19.4804688,10.5429688 19.7239583,10.6432292 19.8958333,10.8151042 L21.1848958,12.1041667 C21.3567708,12.2760417 21.4570312,12.5195312 21.4570312,12.7630208 C21.4570312,13.0065104 21.3567708,13.2356771 21.1848958,13.4075521 L18.5924479,16 L21.1848958,18.5924479 C21.3567708,18.7643229 21.4570312,18.9934896 21.4570312,19.2369792 L21.4570312,19.2369792 Z M27,16 C27,9.92708333 22.0729167,5 16,5 C9.92708333,5 5,9.92708333 5,16 C5,22.0729167 9.92708333,27 16,27 C22.0729167,27 27,22.0729167 27,16 L27,16 Z" id="circle-ex"></path>
        </g>
    </g>
</svg>