<?xml version="1.0" encoding="UTF-8"?>
<svg width="32px" height="32px" viewBox="0 0 32 32" version="1.1" xmlns="http://www.w3.org/2000/svg" xmlns:xlink="http://www.w3.org/1999/xlink">
    <!-- Generator: Sketch 42 (36781) - http://www.bohemiancoding.com/sketch -->
    <title>Icons / create-metric</title>
    <desc>Created with Sketch.</desc>
    <defs></defs>
    <g id="Symbols" stroke="none" stroke-width="1" fill="none" fill-rule="evenodd">
        <g id="Icons-/-create-metric" fill-rule="nonzero" fill="#232437">
            <path d="M0,4.73892819 C0,2.12169042 2.1243915,0 4.73892819,0 L27.2610718,0 C29.8783096,0 32,2.1243915 32,4.73892819 L32,27.2610718 C32,29.8783096 29.8756085,32 27.2610718,32 L4.73892819,32 C2.12169042,32 0,29.8756085 0,27.2610718 L0,4.73892819 Z M1.77777778,8.88707634 L1.77777778,27.2610718 C1.77777778,28.8948584 3.10461917,30.2222222 4.73892819,30.2222222 L27.2610718,30.2222222 C28.8948584,30.2222222 30.2222222,28.8953808 30.2222222,27.2610718 L30.2222222,8.88707634 C30.2222222,7.25328971 1.77777778,7.25276732 1.77777778,8.88707634 Z M13.2171164,24.6522209 L9.75320714,22.1575754 L5.54428954,26.3392024 C5.08724506,26.7932834 4.34863191,26.790881 3.8945509,26.3338365 C3.44046989,25.8767921 3.44287226,25.1381789 3.89991675,24.6840979 L9.5118295,19.1085728 L12.8163025,21.4883951 L17.8997263,15.386857 L21.7454669,17.9134672 L26.2287018,12.8386633 C26.6552547,12.3558261 27.3924612,12.3101987 27.8752984,12.7367517 C28.3581356,13.1633047 28.403763,13.9005111 27.97721,14.3833483 L22.1548382,20.9739901 L18.3591881,18.4802888 L13.2171164,24.6522209 Z" id="metric"></path>
        </g>
    </g>
</svg>