<?xml version="1.0" encoding="UTF-8"?>
<svg width="32px" height="32px" viewBox="0 0 32 32" version="1.1" xmlns="http://www.w3.org/2000/svg" xmlns:xlink="http://www.w3.org/1999/xlink">
    <!-- Generator: Sketch 42 (36781) - http://www.bohemiancoding.com/sketch -->
    <title>Icons / create-board</title>
    <desc>Created with Sketch.</desc>
    <defs></defs>
    <g id="Symbols" stroke="none" stroke-width="1" fill="none" fill-rule="evenodd">
        <g id="Icons-/-create-board" fill="#232437">
            <path d="M0,4.73892819 C0,2.12169042 2.1243915,0 4.73892819,0 L27.2610718,0 C29.8783096,0 32,2.1243915 32,4.73892819 L32,27.2610718 C32,29.8783096 29.8756085,32 27.2610718,32 L4.73892819,32 C2.12169042,32 0,29.8756085 0,27.2610718 L0,4.73892819 Z M1.77777778,8.88707634 L1.77777778,27.2610718 C1.77777778,28.8948584 3.10461917,30.2222222 4.73892819,30.2222222 L27.2610718,30.2222222 C28.8948584,30.2222222 30.2222222,28.8953808 30.2222222,27.2610718 L30.2222222,8.88707634 C30.2222222,7.25328971 1.77777778,7.25276732 1.77777778,8.88707634 Z M3.55555556,23.7037037 L28.4444444,23.7037037 L28.4444444,26.0740741 C28.4444444,27.3831935 27.375,28.4444444 26.0805198,28.4444444 L5.91948024,28.4444444 C4.61392069,28.4444444 3.55555556,27.3923204 3.55555556,26.0740741 L3.55555556,23.7037037 Z M3.55555556,10.0740741 C16,8.49826389 28.4444444,10.0740741 28.4444444,10.0740741 L28.4444444,14.8148148 L3.55555556,14.8148148 L3.55555556,10.0740741 Z M3.55555556,16.5925926 L28.4444444,16.5925926 L28.4444444,21.9259259 L3.55555556,21.9259259 L3.55555556,16.5925926 Z" id="board"></path>
        </g>
    </g>
</svg>