<?xml version="1.0" encoding="UTF-8"?>
<svg width="32px" height="32px" viewBox="0 0 32 32" version="1.1" xmlns="http://www.w3.org/2000/svg" xmlns:xlink="http://www.w3.org/1999/xlink">
    <!-- Generator: Sketch 42 (36781) - http://www.bohemiancoding.com/sketch -->
    <title>Icons / goal-upcoming</title>
    <desc>Created with Sketch.</desc>
    <defs></defs>
    <g id="Symbols" stroke="none" stroke-width="1" fill="none" fill-rule="evenodd">
        <g id="Icons-/-goal-upcoming" fill="#232437">
            <path d="M0,4.73892819 C0,2.12169042 2.1243915,0 4.73892819,0 L27.2610718,0 C29.8783096,0 32,2.1243915 32,4.73892819 L32,27.2610718 C32,29.8783096 29.8756085,32 27.2610718,32 L4.73892819,32 C2.12169042,32 0,29.8756085 0,27.2610718 L0,4.73892819 Z M1.77777778,8.88707634 L1.77777778,27.2610718 C1.77777778,28.8948584 3.10461917,30.2222222 4.73892819,30.2222222 L27.2610718,30.2222222 C28.8948584,30.2222222 30.2222222,28.8953808 30.2222222,27.2610718 L30.2222222,8.88707634 C30.2222222,7.25328971 1.77777778,7.25276732 1.77777778,8.88707634 Z M19.8008878,12.5533764 L19.8008878,15.8224459 C19.8008878,16.6131086 19.5804179,17.3150645 19.1394714,17.9283349 C18.698525,18.5416053 18.0117738,19.0813765 17.0791974,19.5476647 C18.0421839,20.0342263 18.7390716,20.5917364 19.1698814,21.2202119 C19.6006912,21.8486873 19.8160928,22.6038601 19.8160928,23.4857531 C19.8160928,24.063545 19.8135587,24.5855772 19.8084903,25.0518654 C19.803422,25.5181536 19.8008878,25.8830694 19.8008878,26.1466236 L20.7740062,26.1466236 C20.9057833,26.1466236 21.0198195,26.1947722 21.1161181,26.2910708 C21.2124168,26.3873695 21.2605654,26.5014057 21.2605654,26.6331828 C21.2605654,26.7750966 21.2124168,26.8916669 21.1161181,26.9828972 C21.0198195,27.0741275 20.9057833,27.1197419 20.7740062,27.1197419 L11.0124126,27.1197419 C10.8806355,27.1197419 10.7665993,27.0741275 10.6703007,26.9828972 C10.574002,26.8916669 10.5258534,26.7750966 10.5258534,26.6331828 C10.5258534,26.5014057 10.574002,26.3873695 10.6703007,26.2910708 C10.7665993,26.1947722 10.8806355,26.1466236 11.0124126,26.1466236 L12.0159409,26.1466236 C12.0159409,25.8830694 12.0134068,25.5181536 12.0083384,25.0518654 C12.0032701,24.5855772 12.0007359,24.063545 12.0007359,23.4857531 C12.0007359,22.6038601 12.2136034,21.8486873 12.6393449,21.2202119 C13.0650863,20.5917364 13.7543716,20.0342263 14.7072214,19.5476647 C13.7949184,19.0813765 13.1183038,18.5416053 12.6773573,17.9283349 C12.2364108,17.3150645 12.0159409,16.6131086 12.0159409,15.8224459 L12.0159409,12.5533764 L11.0124126,12.5533764 C10.8806355,12.5533764 10.7665993,12.5052278 10.6703007,12.4089292 C10.574002,12.3126305 10.5258534,12.1985943 10.5258534,12.0668172 C10.5258534,11.9249034 10.574002,11.8083331 10.6703007,11.7171028 C10.7665993,11.6258725 10.8806355,11.5802581 11.0124126,11.5802581 L20.7740062,11.5802581 C20.9057833,11.5802581 21.0198195,11.6258725 21.1161181,11.7171028 C21.2124168,11.8083331 21.2605654,11.9249034 21.2605654,12.0668172 C21.2605654,12.1985943 21.2124168,12.3126305 21.1161181,12.4089292 C21.0198195,12.5052278 20.9057833,12.5533764 20.7740062,12.5533764 L19.8008878,12.5533764 Z M13.398271,23.4318763 C13.398271,23.9347746 13.4004386,24.3834745 13.404774,24.7779895 C13.4091093,25.1725045 13.4112769,25.4824759 13.4112769,25.7079131 L18.4055518,25.7079131 C18.4055518,25.4824759 18.4077194,25.1703368 18.4120548,24.7714865 C18.4163901,24.3726362 18.4185577,23.9261039 18.4185577,23.4318763 C18.4185577,22.8596128 18.2581529,22.339381 17.9373385,21.8711654 C17.6165241,21.4029498 16.9358876,20.9520823 15.8954084,20.5185493 C14.8549293,20.9520823 14.178628,21.4029498 13.8664843,21.8711654 C13.5543405,22.339381 13.398271,22.8596128 13.398271,23.4318763 L13.398271,23.4318763 Z M18.2748165,13.1668087 L13.5420123,13.1668087 L13.5420123,15.816686 C13.5420123,16.1946549 13.6734777,16.6137011 13.9364126,17.0738371 C14.1993475,17.5339732 14.8525665,17.9817774 15.8960894,18.4172633 C16.9478289,17.9817774 17.6072104,17.5339732 17.8742536,17.0738371 C18.1412969,16.6137011 18.2748165,16.1946549 18.2748165,15.816686 L18.2748165,13.1668087 Z" id="goal-eggtimer"></path>
        </g>
    </g>
</svg>