<?xml version="1.0" encoding="UTF-8"?>
<svg width="32px" height="32px" viewBox="0 0 32 32" version="1.1" xmlns="http://www.w3.org/2000/svg" xmlns:xlink="http://www.w3.org/1999/xlink">
    <!-- Generator: Sketch 42 (36781) - http://www.bohemiancoding.com/sketch -->
    <title>Icons / goal-settings2</title>
    <desc>Created with Sketch.</desc>
    <defs></defs>
    <g id="Symbols" stroke="none" stroke-width="1" fill="none" fill-rule="evenodd">
        <g id="Icons-/-goal-settings2" fill="#232437">
            <path d="M0.573059622,4 L31.4268354,4 C31.5657058,4 31.7343465,4.09126069 31.8023057,4.20383645 C31.8023057,4.20383645 31.999895,4.48096035 31.999895,4.73747253 C31.999895,4.99398471 31.8716389,5.28256092 31.6792548,5.47494506 L16.73742,20.4167798 C16.5450359,20.6091639 16.2564597,20.73742 15.9999475,20.73742 C15.7434353,20.73742 15.4548591,20.6091639 15.262475,20.4167798 L0.320640231,5.47494506 C0.128256092,5.28256092 6.2930779e-15,4.99398471 6.30878474e-15,4.73747253 C6.32449158e-15,4.48096035 0.190223574,4.21710537 0.190223574,4.21710537 C0.258817569,4.0984407 0.433652242,4 0.573059622,4 Z M2.66131391,12.2587387 C2.9178261,12.2587387 3.20640231,12.3869948 3.39878644,12.5793789 L15.9999475,25.1805399 L28.6011086,12.5793789 C28.7934927,12.3869948 29.0820689,12.2587387 29.3385811,12.2587387 C29.5950933,12.2587387 29.8836695,12.3869948 30.0760536,12.5793789 L31.6792548,14.18258 C31.8716389,14.3749642 31.999895,14.6635404 31.999895,14.9200526 C31.999895,15.1765648 31.8716389,15.465141 31.6792548,15.6575251 L16.73742,30.5993598 C16.5450359,30.791744 16.2564597,30.9200001 15.9999475,30.9200001 C15.7434353,30.9200001 15.4548591,30.791744 15.262475,30.5993598 L0.320640231,15.6575251 C0.128256092,15.465141 -7.91777681e-15,15.1765648 -7.90206997e-15,14.9200526 C-7.88636313e-15,14.6635404 0.128256092,14.3749642 0.320640231,14.18258 L1.92384138,12.5793789 C2.11622552,12.3869948 2.37273771,12.2587387 2.66131391,12.2587387 Z" id="context_menu"></path>
        </g>
    </g>
</svg>