<?xml version="1.0" encoding="UTF-8"?>
<svg width="32px" height="32px" viewBox="0 0 32 32" version="1.1" xmlns="http://www.w3.org/2000/svg" xmlns:xlink="http://www.w3.org/1999/xlink">
    <!-- Generator: Sketch 42 (36781) - http://www.bohemiancoding.com/sketch -->
    <title>Icons / goal-settings</title>
    <desc>Created with Sketch.</desc>
    <defs></defs>
    <g id="Symbols" stroke="none" stroke-width="1" fill="none" fill-rule="evenodd">
        <g id="Icons-/-goal-settings" fill="#232437">
            <path d="M21.3333333,16 C21.3333333,18.9375 18.9375,21.3333333 16,21.3333333 C13.0625,21.3333333 10.6666667,18.9375 10.6666667,16 C10.6666667,13.0625 13.0625,10.6666667 16,10.6666667 C18.9375,10.6666667 21.3333333,13.0625 21.3333333,16 L21.3333333,16 Z M32,13.7291667 C32,13.375 31.75,13.0416667 31.3958333,12.9791667 L27.5833333,12.3958333 C27.375,11.7083333 27.0833333,11.0208333 26.7291667,10.3541667 C27.4375,9.375 28.2083333,8.45833333 28.9166667,7.5 C29.0208333,7.35416667 29.0833333,7.20833333 29.0833333,7.02083333 C29.0833333,6.85416667 29.0416667,6.6875 28.9375,6.5625 C28.0625,5.33333333 26.6041667,4.04166667 25.5,3.02083333 C25.3541667,2.89583333 25.1666667,2.8125 24.9791667,2.8125 C24.7916667,2.8125 24.6041667,2.875 24.4791667,3 L21.5208333,5.22916667 C20.9166667,4.91666667 20.2916667,4.66666667 19.6458333,4.45833333 L19.0625,0.625 C19.0208333,0.270833333 18.6875,0 18.3125,0 L13.6875,0 C13.3125,0 13.0208333,0.25 12.9375,0.583333333 C12.6041667,1.83333333 12.4791667,3.1875 12.3333333,4.45833333 C11.6875,4.66666667 11.0416667,4.9375 10.4375,5.25 L7.5625,3.02083333 C7.39583333,2.89583333 7.20833333,2.8125 7.02083333,2.8125 C6.3125,2.8125 3.5,5.85416667 3,6.54166667 C2.89583333,6.6875 2.8125,6.83333333 2.8125,7.02083333 C2.8125,7.20833333 2.89583333,7.375 3.02083333,7.52083333 C3.79166667,8.45833333 4.54166667,9.39583333 5.25,10.3958333 C4.91666667,11.0208333 4.64583333,11.6458333 4.4375,12.3125 L0.5625,12.8958333 C0.25,12.9583333 0,13.3333333 0,13.6458333 L0,18.2708333 C0,18.625 0.25,18.9583333 0.604166667,19.0208333 L4.41666667,19.5833333 C4.625,20.2916667 4.91666667,20.9791667 5.27083333,21.6458333 C4.5625,22.625 3.79166667,23.5416667 3.08333333,24.5 C2.97916667,24.6458333 2.91666667,24.7916667 2.91666667,24.9791667 C2.91666667,25.1458333 2.95833333,25.3125 3.0625,25.4583333 C3.9375,26.6666667 5.39583333,27.9583333 6.5,28.9583333 C6.64583333,29.1041667 6.83333333,29.1875 7.02083333,29.1875 C7.20833333,29.1875 7.39583333,29.125 7.54166667,29 L10.4791667,26.7708333 C11.0833333,27.0833333 11.7083333,27.3333333 12.3541667,27.5416667 L12.9375,31.375 C12.9791667,31.7291667 13.3125,32 13.6875,32 L18.3125,32 C18.6875,32 18.9791667,31.75 19.0625,31.4166667 C19.3958333,30.1666667 19.5208333,28.8125 19.6666667,27.5416667 C20.3125,27.3333333 20.9583333,27.0625 21.5625,26.75 L24.4375,29 C24.6041667,29.1041667 24.7916667,29.1875 24.9791667,29.1875 C25.6875,29.1875 28.5,26.125 29,25.4583333 C29.125,25.3125 29.1875,25.1666667 29.1875,24.9791667 C29.1875,24.7916667 29.1041667,24.6041667 28.9791667,24.4583333 C28.2083333,23.5208333 27.4583333,22.6041667 26.75,21.5833333 C27.0833333,20.9791667 27.3333333,20.3541667 27.5625,19.6875 L31.4166667,19.1041667 C31.75,19.0416667 32,18.6666667 32,18.3541667 L32,13.7291667 Z" id="cog"></path>
        </g>
    </g>
</svg>