<?xml version="1.0" encoding="UTF-8"?>
<svg width="32px" height="32px" viewBox="0 0 32 32" version="1.1" xmlns="http://www.w3.org/2000/svg" xmlns:xlink="http://www.w3.org/1999/xlink">
    <!-- Generator: Sketch 42 (36781) - http://www.bohemiancoding.com/sketch -->
    <title>Icons / goal-private</title>
    <desc>Created with Sketch.</desc>
    <defs></defs>
    <g id="Symbols" stroke="none" stroke-width="1" fill="none" fill-rule="evenodd">
        <g id="Icons-/-goal-private" fill="#232437">
            <path d="M10.2727273,14.5454545 L10.2727273,10.1818182 C10.2727273,6.97727273 12.8863636,4.36363636 16.0909091,4.36363636 C19.2954545,4.36363636 21.9090909,6.97727273 21.9090909,10.1818182 L21.9090909,14.5454545 L10.2727273,14.5454545 Z M29.1818182,16.7272727 C29.1818182,15.5227273 28.2045455,14.5454545 27,14.5454545 L26.2727273,14.5454545 L26.2727273,10.1818182 C26.2727273,4.59090909 21.6818182,0 16.0909091,0 C10.5,0 5.90909091,4.59090909 5.90909091,10.1818182 L5.90909091,14.5454545 L5.18181818,14.5454545 C3.97727273,14.5454545 3,15.5227273 3,16.7272727 L3,29.8181818 C3,31.0227273 3.97727273,32 5.18181818,32 L27,32 C28.2045455,32 29.1818182,31.0227273 29.1818182,29.8181818 L29.1818182,16.7272727 Z" id="lock"></path>
        </g>
    </g>
</svg>