<?xml version="1.0" encoding="UTF-8"?>
<svg width="32px" height="32px" viewBox="0 0 32 32" version="1.1" xmlns="http://www.w3.org/2000/svg" xmlns:xlink="http://www.w3.org/1999/xlink">
    <!-- Generator: Sketch 42 (36781) - http://www.bohemiancoding.com/sketch -->
    <title>Icons / goal-edit</title>
    <desc>Created with Sketch.</desc>
    <defs></defs>
    <g id="Symbols" stroke="none" stroke-width="1" fill="none" fill-rule="evenodd">
        <g id="Icons-/-goal-edit" fill="#232437">
            <path d="M16.9345456,21.7600002 L18.8854548,19.8090911 L16.3290911,17.2527274 L14.378182,19.2036366 L14.378182,20.1454548 L15.9927275,20.1454548 L15.9927275,21.7600002 L16.9345456,21.7600002 Z M24.3345457,9.65090916 C24.1831821,9.49954553 23.9309094,9.51636371 23.7795457,9.66772735 L17.893182,15.5540911 C17.7418184,15.7054547 17.7250002,15.9577274 17.8763638,16.1090911 C18.0277275,16.2604547 18.2800002,16.2436365 18.4313638,16.0922729 L24.3177276,10.2059092 C24.4690912,10.0545455 24.4859094,9.8022728 24.3345457,9.65090916 Z M25.6800003,19.6409093 L25.6800003,22.8363639 C25.6800003,25.5104548 23.5104548,27.6800003 20.8363639,27.6800003 L6.84363643,27.6800003 C4.16954548,27.6800003 2,25.5104548 2,22.8363639 L2,8.84363643 C2,6.16954548 4.16954548,4 6.84363643,4 L20.8363639,4 C21.5090912,4 22.1818184,4.13454546 22.8040912,4.42045455 C22.9554548,4.48772728 23.0731821,4.63909092 23.1068185,4.80727274 C23.1404548,4.99227274 19.834925,8.84363643 18.6769683,9.91999559 L6.84363643,9.91999559 C5.36363641,9.91999559 4.1527273,11.1309047 4.1527273,12.6109047 L4.1527273,22.8363639 C4.1527273,24.3163639 5.36363641,25.527273 6.84363643,25.527273 L20.8363639,25.527273 C22.3163639,25.527273 23.527273,24.3163639 23.527273,22.8363639 L23.527273,20.7172729 C23.527273,20.5827275 23.5777276,20.448182 23.6786366,20.3472729 L24.7550003,19.2709093 C24.9231821,19.1027275 25.1418185,19.0690911 25.3436367,19.153182 C25.5454548,19.2372729 25.6800003,19.4222729 25.6800003,19.6409093 Z M24.0654548,7.22909095 L28.9090913,12.0727274 L17.6072729,23.3745457 L12.7636365,23.3745457 L12.7636365,18.5309093 L24.0654548,7.22909095 Z M31.5327277,9.44909098 L29.9854549,10.9963637 L25.1418185,6.1527273 L26.6890912,4.60545455 C27.311364,3.98318182 28.3540912,3.98318182 28.976364,4.60545455 L31.5327277,7.16181822 C32.1550004,7.78409096 32.1550004,8.82681824 31.5327277,9.44909098 Z" id="goal-pencil"></path>
        </g>
    </g>
</svg>