<?xml version="1.0" encoding="UTF-8"?>
<svg width="32px" height="32px" viewBox="0 0 32 32" version="1.1" xmlns="http://www.w3.org/2000/svg" xmlns:xlink="http://www.w3.org/1999/xlink">
    <!-- Generator: Sketch 42 (36781) - http://www.bohemiancoding.com/sketch -->
    <title>Icons / goal-upcoming2</title>
    <desc>Created with Sketch.</desc>
    <defs></defs>
    <g id="Symbols" stroke="none" stroke-width="1" fill="none" fill-rule="evenodd">
        <g id="Icons-/-goal-upcoming2">
            <path d="M0,4.73892819 C0,2.12169042 2.1243915,0 4.73892819,0 L27.2610718,0 C29.8783096,0 32,2.1243915 32,4.73892819 L32,27.2610718 C32,29.8783096 29.8756085,32 27.2610718,32 L4.73892819,32 C2.12169042,32 0,29.8756085 0,27.2610718 L0,4.73892819 Z M1.77777778,8.88707634 L1.77777778,27.2610718 C1.77777778,28.8948584 3.10461917,30.2222222 4.73892819,30.2222222 L27.2610718,30.2222222 C28.8948584,30.2222222 30.2222222,28.8953808 30.2222222,27.2610718 L30.2222222,8.88707634 C30.2222222,7.25328971 1.77777778,7.25276732 1.77777778,8.88707634 Z" id="Combined-Shape" fill="#232437"></path>
            <path d="M8.38461538,25.7142857 L8.38461538,22.8214286 L11.5,22.8214286 L11.5,25.7142857 L8.38461538,25.7142857 Z M12.1923077,25.7142857 L12.1923077,22.8214286 L15.6538462,22.8214286 L15.6538462,25.7142857 L12.1923077,25.7142857 Z M8.38461538,22.1785714 L8.38461538,18.9642857 L11.5,18.9642857 L11.5,22.1785714 L8.38461538,22.1785714 Z M12.1923077,22.1785714 L12.1923077,18.9642857 L15.6538462,18.9642857 L15.6538462,22.1785714 L12.1923077,22.1785714 Z M8.38461538,18.3214286 L8.38461538,15.4285714 L11.5,15.4285714 L11.5,18.3214286 L8.38461538,18.3214286 Z M16.3461538,25.7142857 L16.3461538,22.8214286 L19.8076923,22.8214286 L19.8076923,25.7142857 L16.3461538,25.7142857 Z M12.1923077,18.3214286 L12.1923077,15.4285714 L15.6538462,15.4285714 L15.6538462,18.3214286 L12.1923077,18.3214286 Z M20.5,25.7142857 L20.5,22.8214286 L23.6153846,22.8214286 L23.6153846,25.7142857 L20.5,25.7142857 Z M16.3461538,22.1785714 L16.3461538,18.9642857 L19.8076923,18.9642857 L19.8076923,22.1785714 L16.3461538,22.1785714 Z M12.5384615,13.5 C12.5384615,13.6707589 12.3762019,13.8214286 12.1923077,13.8214286 L11.5,13.8214286 C11.3161058,13.8214286 11.1538462,13.6707589 11.1538462,13.5 L11.1538462,10.6071429 C11.1538462,10.4363839 11.3161058,10.2857143 11.5,10.2857143 L12.1923077,10.2857143 C12.3762019,10.2857143 12.5384615,10.4363839 12.5384615,10.6071429 L12.5384615,13.5 Z M20.5,22.1785714 L20.5,18.9642857 L23.6153846,18.9642857 L23.6153846,22.1785714 L20.5,22.1785714 Z M16.3461538,18.3214286 L16.3461538,15.4285714 L19.8076923,15.4285714 L19.8076923,18.3214286 L16.3461538,18.3214286 Z M20.5,18.3214286 L20.5,15.4285714 L23.6153846,15.4285714 L23.6153846,18.3214286 L20.5,18.3214286 Z M20.8461538,13.5 C20.8461538,13.6707589 20.6838942,13.8214286 20.5,13.8214286 L19.8076923,13.8214286 C19.6237981,13.8214286 19.4615385,13.6707589 19.4615385,13.5 L19.4615385,10.6071429 C19.4615385,10.4363839 19.6237981,10.2857143 19.8076923,10.2857143 L20.5,10.2857143 C20.6838942,10.2857143 20.8461538,10.4363839 20.8461538,10.6071429 L20.8461538,13.5 Z M25,12.8571429 C25,12.1540179 24.3725962,11.5714286 23.6153846,11.5714286 L22.2307692,11.5714286 L22.2307692,10.6071429 C22.2307692,9.72321429 21.4519231,9 20.5,9 L19.8076923,9 C18.8557692,9 18.0769231,9.72321429 18.0769231,10.6071429 L18.0769231,11.5714286 L13.9230769,11.5714286 L13.9230769,10.6071429 C13.9230769,9.72321429 13.1442308,9 12.1923077,9 L11.5,9 C10.5480769,9 9.76923077,9.72321429 9.76923077,10.6071429 L9.76923077,11.5714286 L8.38461538,11.5714286 C7.62740385,11.5714286 7,12.1540179 7,12.8571429 L7,25.7142857 C7,26.4174107 7.62740385,27 8.38461538,27 L23.6153846,27 C24.3725962,27 25,26.4174107 25,25.7142857 L25,12.8571429 Z" id="calendar" fill="#000000"></path>
        </g>
    </g>
</svg>