<?xml version="1.0" encoding="UTF-8"?>
<svg width="32px" height="32px" viewBox="0 0 32 32" version="1.1" xmlns="http://www.w3.org/2000/svg" xmlns:xlink="http://www.w3.org/1999/xlink">
    <!-- Generator: Sketch 42 (36781) - http://www.bohemiancoding.com/sketch -->
    <title>Icons / goal-state-expired</title>
    <desc>Created with Sketch.</desc>
    <defs></defs>
    <g id="Symbols" stroke="none" stroke-width="1" fill="none" fill-rule="evenodd">
        <g id="Icons-/-goal-state-expired" fill="#232437">
            <path d="M0,4.73892819 C0,2.12169042 2.1243915,0 4.73892819,0 L27.2610718,0 C29.8783096,0 32,2.1243915 32,4.73892819 L32,27.2610718 C32,29.8783096 29.8756085,32 27.2610718,32 L4.73892819,32 C2.12169042,32 0,29.8756085 0,27.2610718 L0,4.73892819 Z M1.77777778,8.88707634 L1.77777778,27.2610718 C1.77777778,28.8948584 3.10461917,30.2222222 4.73892819,30.2222222 L27.2610718,30.2222222 C28.8948584,30.2222222 30.2222222,28.8953808 30.2222222,27.2610718 L30.2222222,8.88707634 C30.2222222,7.25328971 1.77777778,7.25276732 1.77777778,8.88707634 Z M22.4945117,15.392297 C22.4945117,15.485633 22.4523642,15.5789691 22.3801115,15.6448533 L21.8382155,16.1389853 C21.7659627,16.2048696 21.6636046,16.243302 21.5612465,16.243302 C21.4588883,16.243302 21.3625513,16.2048696 21.2902985,16.1389853 L20.2004855,15.145231 L19.1106725,16.1389853 C19.0384197,16.2048696 18.9420827,16.243302 18.8397245,16.243302 C18.7373664,16.243302 18.6350083,16.2048696 18.5627555,16.1389853 L18.0208595,15.6448533 C17.9486067,15.5789691 17.9064593,15.485633 17.9064593,15.392297 C17.9064593,15.298961 17.9486067,15.2111153 18.0208595,15.145231 L19.1106725,14.1514767 L18.0208595,13.1577225 C17.9486067,13.0918382 17.9064593,13.0039925 17.9064593,12.9106565 C17.9064593,12.8173204 17.9486067,12.7239844 18.0208595,12.6581001 L18.5627555,12.1639682 C18.6350083,12.0980839 18.7373664,12.0596514 18.8397245,12.0596514 C18.9420827,12.0596514 19.0384197,12.0980839 19.1106725,12.1639682 L20.2004855,13.1577225 L21.2902985,12.1639682 C21.3625513,12.0980839 21.4588883,12.0596514 21.5612465,12.0596514 C21.6636046,12.0596514 21.7659627,12.0980839 21.8382155,12.1639682 L22.3801115,12.6581001 C22.4523642,12.7239844 22.4945117,12.8173204 22.4945117,12.9106565 C22.4945117,13.0039925 22.4523642,13.0918382 22.3801115,13.1577225 L21.2902985,14.1514767 L22.3801115,15.145231 C22.4523642,15.2111153 22.4945117,15.298961 22.4945117,15.392297 Z M14.0209141,15.392297 C14.0209141,15.485633 13.9787666,15.5789691 13.9065138,15.6448533 L13.3646178,16.1389853 C13.292365,16.2048696 13.1900069,16.243302 13.0876488,16.243302 C12.9852907,16.243302 12.8889536,16.2048696 12.8167008,16.1389853 L11.7268878,15.145231 L10.6370748,16.1389853 C10.5648221,16.2048696 10.468485,16.243302 10.3661269,16.243302 C10.2637687,16.243302 10.1614106,16.2048696 10.0891578,16.1389853 L9.54726187,15.6448533 C9.47500907,15.5789691 9.43286161,15.485633 9.43286161,15.392297 C9.43286161,15.298961 9.47500907,15.2111153 9.54726187,15.145231 L10.6370748,14.1514767 L9.54726187,13.1577225 C9.47500907,13.0918382 9.43286161,13.0039925 9.43286161,12.9106565 C9.43286161,12.8173204 9.47500907,12.7239844 9.54726187,12.6581001 L10.0891578,12.1639682 C10.1614106,12.0980839 10.2637687,12.0596514 10.3661269,12.0596514 C10.468485,12.0596514 10.5648221,12.0980839 10.6370748,12.1639682 L11.7268878,13.1577225 L12.8167008,12.1639682 C12.8889536,12.0980839 12.9852907,12.0596514 13.0876488,12.0596514 C13.1900069,12.0596514 13.292365,12.0980839 13.3646178,12.1639682 L13.9065138,12.6581001 C13.9787666,12.7239844 14.0209141,12.8173204 14.0209141,12.9106565 C14.0209141,13.0039925 13.9787666,13.0918382 13.9065138,13.1577225 L12.8167008,14.1514767 L13.9065138,15.145231 C13.9787666,15.2111153 14.0209141,15.298961 14.0209141,15.392297 Z M8.18803242,19.3907088 L24.0786917,19.3907088 L24.0786917,23.4963508 C24.0786917,23.9421677 24.0368791,24.3724264 23.9532529,24.7871398 C23.8434933,25.2018532 23.618751,25.6217442 23.2790192,26.0468254 C23.0229137,26.4045157 22.6570541,26.6948107 22.1814295,26.9177192 C21.7214849,27.1509955 21.1779221,27.2676319 20.5507249,27.2676319 C19.7040086,27.2676319 18.9330903,26.972153 18.2379467,26.3811864 C17.5062166,25.7746681 17.1299039,24.8882315 17.1089973,23.7218501 L17.1089973,21.1091688 L8.18803242,21.1091688 C8.18803242,21.1091688 7.33842486,20.2725646 8.18803242,19.3907088 Z M22.2672095,21.1132367 L18.6930809,21.1132367 L18.6930809,23.5743534 C18.7031987,24.1915172 18.8954359,24.6556376 19.269798,24.9667283 C19.6340422,25.2627662 20.038752,25.410783 20.4839394,25.410783 C20.8532425,25.410783 21.1643631,25.3505728 21.4173105,25.2301506 C21.6449632,25.1047108 21.8245531,24.9290977 21.9560858,24.703306 C22.1736205,24.3621097 22.2773274,23.9657259 22.2672095,23.5141426 L22.2672095,21.1132367 Z" id="expired-face"></path>
        </g>
    </g>
</svg>