<?xml version="1.0" encoding="UTF-8"?>
<svg width="32px" height="32px" viewBox="0 0 32 32" version="1.1" xmlns="http://www.w3.org/2000/svg" xmlns:xlink="http://www.w3.org/1999/xlink">
    <!-- Generator: Sketch 42 (36781) - http://www.bohemiancoding.com/sketch -->
    <title>Icons / icon-fave</title>
    <desc>Created with Sketch.</desc>
    <defs></defs>
    <g id="Symbols" stroke="none" stroke-width="1" fill="none" fill-rule="evenodd">
        <g id="Icons-/-icon-fave" fill="#232437">
            <path d="M32.000807,12.8272213 C32.000807,12.2502837 31.3854069,12.0195087 30.9238568,11.9425837 L21.2697672,10.5387021 L16.942735,1.78848142 C16.7696537,1.42308759 16.4427224,1 16.0004035,1 C15.5580847,1 15.2311533,1.42308759 15.0580721,1.78848142 L10.7310399,10.5387021 L1.07695024,11.9425837 C0.596168881,12.0195087 0,12.2502837 0,12.8272213 C0,13.1733839 0.250006305,13.5003152 0.480781356,13.7503216 L7.48095789,20.5581855 L5.82707003,30.1738127 C5.80783878,30.3084314 5.78860752,30.423819 5.78860752,30.5584377 C5.78860752,31.0584504 6.03861383,31.5200005 6.5963202,31.5200005 C6.86555776,31.5200005 7.11556406,31.4238442 7.36557037,31.2892254 L16.0004035,26.7506494 L24.6352367,31.2892254 C24.8660117,31.4238442 25.1352493,31.5200005 25.4044868,31.5200005 C25.9621932,31.5200005 26.1929683,31.0584504 26.1929683,30.5584377 C26.1929683,30.423819 26.1929683,30.3084314 26.173737,30.1738127 L24.5198491,20.5581855 L31.5007944,13.7503216 C31.7508007,13.5003152 32.000807,13.1733839 32.000807,12.8272213 L32.000807,12.8272213 Z" id="icon-star--grey"></path>
        </g>
    </g>
</svg>