<?xml version="1.0" encoding="UTF-8"?>
<svg width="32px" height="32px" viewBox="0 0 32 32" version="1.1" xmlns="http://www.w3.org/2000/svg" xmlns:xlink="http://www.w3.org/1999/xlink">
    <!-- Generator: Sketch 42 (36781) - http://www.bohemiancoding.com/sketch -->
    <title>Icons / trash</title>
    <desc>Created with Sketch.</desc>
    <defs></defs>
    <g id="Symbols" stroke="none" stroke-width="1" fill="none" fill-rule="evenodd">
        <g id="Icons-/-trash" fill="#232437">
            <path d="M8.17854353,12.8756975 L22.8214565,12.8756975 L22.8214565,25.9352152 C22.8214565,26.4874136 22.3671663,26.9350588 21.8149898,26.9350588 L9.18501023,26.9350588 C8.62915402,26.9350588 8.17854353,26.4832023 8.17854353,25.9352152 L8.17854353,12.8756975 Z M10.2703882,14.4378487 L10.2703882,23.8107563 L12.3622329,23.8107563 L12.3622329,14.4378487 L10.2703882,14.4378487 Z M14.4540776,14.4378487 L14.4540776,23.8107563 L16.5459224,23.8107563 L16.5459224,14.4378487 L14.4540776,14.4378487 Z M18.6377671,14.4378487 L18.6377671,23.8107563 L20.7296118,23.8107563 L20.7296118,14.4378487 L18.6377671,14.4378487 Z" id="bucket"></path>
            <path d="M17.0556019,8.18924368 L17.0556019,7.40816805 C17.0556019,6.98159703 16.7013147,6.62709242 16.2765055,6.62709242 L14.7234945,6.62709242 C14.2889797,6.62709242 13.9443981,6.97201296 13.9443981,7.40816805 L13.9443981,8.18924368 L17.0556019,8.18924368 Z M12.3887962,8.18924368 L12.3887962,7.40816805 C12.3887962,6.10501714 13.4340762,5.06494115 14.7234945,5.06494115 L16.2765055,5.06494115 C17.5556571,5.06494115 18.6112038,6.11403957 18.6112038,7.40816805 L18.6112038,8.18924368 L20.0672366,8.18924368 C21.5981957,8.18924368 22.8214565,8.88864263 22.8214565,9.75139494 L22.8214565,11.3135462 L8.17854353,11.3135462 L8.17854353,9.75139494 C8.17854353,8.88262767 9.41164979,8.18924368 10.9327634,8.18924368 L12.3887962,8.18924368 Z" id="lid" fill-rule="nonzero"></path>
        </g>
    </g>
</svg>