<?xml version="1.0" encoding="UTF-8"?>
<svg width="32px" height="32px" viewBox="0 0 32 32" version="1.1" xmlns="http://www.w3.org/2000/svg" xmlns:xlink="http://www.w3.org/1999/xlink">
    <!-- Generator: Sketch 42 (36781) - http://www.bohemiancoding.com/sketch -->
    <title>Icons / user-delete</title>
    <desc>Created with Sketch.</desc>
    <defs></defs>
    <g id="Symbols" stroke="none" stroke-width="1" fill="none" fill-rule="evenodd">
        <g id="Icons-/-user-delete" fill="#232437">
            <path d="M16.1333105,18.5646127 C17.4780971,18.5646127 18.9530023,18.7593181 20.5580703,19.1487348 C22.3800393,19.6030542 23.8549445,20.2088044 24.9828301,20.9660035 C26.3276168,21.8530081 27,22.8481691 27,23.9515163 L27,26.6774194 L5.26662092,26.6774194 L5.26662092,23.9515163 C5.26662092,22.8481691 5.93900417,21.8530081 7.28379084,20.9660035 C8.41167643,20.2088044 9.88658162,19.6030542 11.7085506,19.1487348 C13.3136186,18.7593181 14.7885238,18.5646127 16.1333105,18.5646127 Z M9.99956081,14.1128066 L9.99956081,16.8387097 L1,16.8387097 L1,14.1128066 L9.99956081,14.1128066 Z M16.1333105,15.8387097 C15.1572556,15.8387097 14.2571297,15.5953279 13.4329056,15.1085571 C12.6086815,14.6217862 11.9525656,13.9673597 11.4645382,13.1452579 C10.9765107,12.323156 10.7325007,11.4253477 10.7325007,10.4518061 C10.7325007,9.4782644 10.9765107,8.56963914 11.4645382,7.72590303 C11.9525656,6.88216692 12.6086815,6.21692343 13.4329056,5.7301526 C14.2571297,5.24338177 15.1572556,5 16.1333105,5 C17.1093653,5 18.0094913,5.24338177 18.8337153,5.7301526 C19.6579394,6.21692343 20.3140553,6.88216692 20.8020828,7.72590303 C21.2901102,8.56963914 21.5341202,9.4782644 21.5341202,10.4518061 C21.5341202,11.4253477 21.2901102,12.323156 20.8020828,13.1452579 C20.3140553,13.9673597 19.6579394,14.6217862 18.8337153,15.1085571 C18.0094913,15.5953279 17.1093653,15.8387097 16.1333105,15.8387097 Z" id="person-minus"></path>
        </g>
    </g>
</svg>