<?xml version="1.0" encoding="UTF-8"?>
<svg width="32px" height="32px" viewBox="0 0 32 32" version="1.1" xmlns="http://www.w3.org/2000/svg" xmlns:xlink="http://www.w3.org/1999/xlink">
    <!-- Generator: Sketch 42 (36781) - http://www.bohemiancoding.com/sketch -->
    <title>Icons / user-guide</title>
    <desc>Created with Sketch.</desc>
    <defs></defs>
    <g id="Symbols" stroke="none" stroke-width="1" fill="none" fill-rule="evenodd">
        <g id="Icons-/-user-guide" fill="#232437">
            <path d="M28.254902,24.6607017 L28.254902,6.77679831 L16,6.77679831 L16,24.6607017 L28.254902,24.6607017 Z M28.254902,4 C28.9956464,4 29.6383415,4.27547327 30.1830065,4.82642807 C30.7276716,5.37738287 31,6.02749978 31,6.77679831 L31,24.6607017 C31,25.4100002 30.7276716,26.0601171 30.1830065,26.6110719 C29.6383415,27.1620267 28.9956464,27.4375 28.254902,27.4375 L3.74509804,27.4375 C3.00435359,27.4375 2.3616585,27.1620267 1.81699346,26.6110719 C1.27232843,26.0601171 1,25.4100002 1,24.6607017 L1,6.77679831 C1,6.02749978 1.27232843,5.37738287 1.81699346,4.82642807 C2.3616585,4.27547327 3.00435359,4 3.74509804,4 L28.254902,4 Z M17.3398693,18.4459626 L26.9150327,18.4459626 L26.9150327,20.5285614 L17.3398693,20.5285614 L17.3398693,18.4459626 Z M17.3398693,11.6031382 L26.9150327,11.6031382 L26.9150327,13.685737 L17.3398693,13.685737 L17.3398693,11.6031382 Z M17.3398693,15.041079 L26.9150327,15.041079 L26.9150327,17.0906206 L17.3398693,17.0906206 L17.3398693,15.041079 Z" id="book"></path>
        </g>
    </g>
</svg>