<?xml version="1.0" encoding="UTF-8"?>
<svg width="32px" height="32px" viewBox="0 0 32 32" version="1.1" xmlns="http://www.w3.org/2000/svg" xmlns:xlink="http://www.w3.org/1999/xlink">
    <!-- Generator: Sketch 42 (36781) - http://www.bohemiancoding.com/sketch -->
    <title>Icons / user-logoff</title>
    <desc>Created with Sketch.</desc>
    <defs></defs>
    <g id="Symbols" stroke="none" stroke-width="1" fill="none" fill-rule="evenodd">
        <g id="Icons-/-user-logoff" fill="#232437">
            <path d="M30,16.7521368 C30,12.2088675 27.9583333,8.02083333 24.4036458,5.29113248 C23.3828125,4.48717949 21.90625,4.69284188 21.140625,5.75854701 C20.3567708,6.80555556 20.5755208,8.31997863 21.5963542,9.10523504 C23.9661458,10.9375 25.3333333,13.7232906 25.3333333,16.7521368 C25.3333333,22.0245726 21.140625,26.3247863 16,26.3247863 C10.859375,26.3247863 6.66666667,22.0245726 6.66666667,16.7521368 C6.66666667,13.7232906 8.03385417,10.9375 10.4036458,9.10523504 C11.4244792,8.31997863 11.6432292,6.80555556 10.859375,5.75854701 C10.09375,4.69284188 8.63541667,4.48717949 7.59635417,5.29113248 C4.04166667,8.02083333 2,12.2088675 2,16.7521368 C2,24.6607906 8.2890625,31.1111111 16,31.1111111 C23.7109375,31.1111111 30,24.6607906 30,16.7521368 Z M18.3333333,2.39316239 C18.3333333,1.08440171 17.2760417,0 16,0 C14.7239583,0 13.6666667,1.08440171 13.6666667,2.39316239 L13.6666667,14.3589744 C13.6666667,15.667735 14.7239583,16.7521368 16,16.7521368 C17.2760417,16.7521368 18.3333333,15.667735 18.3333333,14.3589744 L18.3333333,2.39316239 Z" id="power_off"></path>
        </g>
    </g>
</svg>