<?xml version="1.0" encoding="UTF-8"?>
<svg width="32px" height="32px" viewBox="0 0 32 32" version="1.1" xmlns="http://www.w3.org/2000/svg" xmlns:xlink="http://www.w3.org/1999/xlink">
    <!-- Generator: Sketch 42 (36781) - http://www.bohemiancoding.com/sketch -->
    <title>Icons / user-faq</title>
    <desc>Created with Sketch.</desc>
    <defs></defs>
    <g id="Symbols" stroke="none" stroke-width="1" fill="none" fill-rule="evenodd">
        <g id="Icons-/-user-faq" fill="#232437">
            <path d="M16,1 C20.1518065,1 23.6897175,2.46203895 26.6138393,5.38616071 C29.537961,8.31028248 31,11.8481935 31,16 C31,20.1518065 29.537961,23.6897175 26.6138393,26.6138393 C23.6897175,29.537961 20.1518065,31 16,31 C11.8481935,31 8.31028248,29.537961 5.38616071,26.6138393 C2.46203895,23.6897175 1,20.1518065 1,16 C1,11.8481935 2.46203895,8.31028248 5.38616071,5.38616071 C8.31028248,2.46203895 11.8481935,1 16,1 Z M17.3392857,22.8973214 C17.3839288,22.3169614 17.2165198,21.8258949 16.8370536,21.4241071 C16.4575874,21.0223194 15.9776815,20.8214286 15.3973214,20.8214286 C14.8616045,20.8214286 14.3928592,20.9999982 13.9910714,21.3571429 C13.5892837,21.7142875 13.3883929,22.1830328 13.3883929,22.7633929 C13.3883929,23.3437529 13.5669625,23.8236588 13.9241071,24.203125 C14.2812518,24.5825912 14.7276759,24.7723214 15.2633929,24.7723214 C15.8437529,24.7723214 16.3348194,24.6049124 16.7366071,24.2700893 C17.1383949,23.9352662 17.3392857,23.4776815 17.3392857,22.8973214 Z M20.6205357,14.3258929 C21.1562527,13.5669605 21.4241071,12.7633971 21.4241071,11.9151786 C21.4241071,10.4419569 20.866077,9.28125424 19.75,8.43303571 C18.6785661,7.62946027 17.2946513,7.22767857 15.5982143,7.22767857 C14.348208,7.22767857 13.2991114,7.51785424 12.4508929,8.09821429 C11.2008866,8.94643281 10.5758929,10.4642748 10.5758929,12.6517857 L13.8571429,12.6517857 C13.8571429,11.714281 13.9464277,11.1116085 14.125,10.84375 C14.5267877,10.1741038 15.1071391,9.83928571 15.8660714,9.83928571 C16.6250038,9.83928571 17.1830339,10.084819 17.5401786,10.5758929 C17.8973232,11.0669667 18.0758929,11.5803545 18.0758929,12.1160714 C18.0758929,12.4732161 17.8973232,12.9196402 17.5401786,13.4553571 C17.4508924,13.6339295 17.2276804,13.8571415 16.8705357,14.125 C15.7098156,14.7946462 14.9285734,15.4642824 14.5267857,16.1339286 C14.1696411,16.7142886 13.946429,17.629458 13.8571429,18.8794643 C13.8571429,19.0580366 13.9464277,19.1473214 14.125,19.1473214 L16.7366071,19.1473214 C16.9598225,19.1473214 17.0714286,19.0580366 17.0714286,18.8794643 C17.0714286,18.3883904 17.116071,17.9642875 17.2053571,17.6071429 C17.3392864,17.2053551 17.6071408,16.8258946 18.0089286,16.46875 L18.9464286,15.8660714 C19.7946471,15.2410683 20.3526772,14.7276806 20.6205357,14.3258929 Z" id="circle-question"></path>
        </g>
    </g>
</svg>