<?xml version="1.0" encoding="UTF-8"?>
<svg width="32px" height="32px" viewBox="0 0 32 32" version="1.1" xmlns="http://www.w3.org/2000/svg" xmlns:xlink="http://www.w3.org/1999/xlink">
    <!-- Generator: Sketch 42 (36781) - http://www.bohemiancoding.com/sketch -->
    <title>Icons / user-edit</title>
    <desc>Created with Sketch.</desc>
    <defs></defs>
    <g id="Symbols" stroke="none" stroke-width="1" fill="none" fill-rule="evenodd">
        <g id="Icons-/-user-edit" fill="#232437">
            <path d="M25.2857143,26.630303 L6.42857143,26.630303 L6.42857143,5.49090909 L20.5,5.48999977 L24,2.05999994 L4.9047619,2 C4.38888631,2 3.9424622,2.19191727 3.56547619,2.57575758 C3.18849018,2.95959788 3,3.41413879 3,3.93939394 L3,28.1818182 C3,28.7272755 3.18849018,29.1868668 3.56547619,29.5606061 C3.9424622,29.9343453 4.38888631,30.1212121 4.9047619,30.1212121 L26.8095238,30.1212121 C27.3452408,30.1212121 27.7966251,29.9343453 28.1636905,29.5606061 C28.5307558,29.1868668 28.7142857,28.7272755 28.7142857,28.1818182 L28.7142857,9 L25.2857143,12.2887547 L25.2857143,26.630303 Z" id="profile"></path>
            <path d="M15,20.1803665 C15.8662718,20.1803665 16.8163621,20.3084001 17.8502994,20.5644711 C19.023958,20.8632205 19.9740483,21.2615471 20.7005988,21.7594629 C21.5668706,22.3427356 22,22.9971294 22,23.7226638 L22,25.5151515 L8,25.5151515 L8,23.7226638 C8,22.9971294 8.4331294,22.3427356 9.2994012,21.7594629 C10.0259517,21.2615471 10.976042,20.8632205 12.1497006,20.5644711 C13.1836379,20.3084001 14.1337282,20.1803665 15,20.1803665 Z M15,18.3878788 C14.3712543,18.3878788 13.7914198,18.2278368 13.260479,17.9077481 C12.7295383,17.5876594 12.3068878,17.1573244 11.992515,16.6167302 C11.6781421,16.0761359 11.5209581,15.485759 11.5209581,14.8455816 C11.5209581,14.2054042 11.6781421,13.6079142 11.992515,13.0530938 C12.3068878,12.4982734 12.7295383,12.0608254 13.260479,11.7407367 C13.7914198,11.420648 14.3712543,11.2606061 15,11.2606061 C15.6287457,11.2606061 16.2085802,11.420648 16.739521,11.7407367 C17.2704617,12.0608254 17.6931122,12.4982734 18.007485,13.0530938 C18.3218579,13.6079142 18.4790419,14.2054042 18.4790419,14.8455816 C18.4790419,15.485759 18.3218579,16.0761359 18.007485,16.6167302 C17.6931122,17.1573244 17.2704617,17.5876594 16.739521,17.9077481 C16.2085802,18.2278368 15.6287457,18.3878788 15,18.3878788 Z" id="person"></path>
            <path d="M26.5504918,2.42786885 L29.5721311,5.4495082 L22.5216393,12.5 L19.5,12.5 L19.5,9.47836066 L26.5504918,2.42786885 Z M22.1019672,11.4927869 L23.3190164,10.2757377 L21.7242623,8.68098361 L20.5072131,9.89803279 L20.5072131,10.4855738 L21.5144262,10.4855738 L21.5144262,11.4927869 L22.1019672,11.4927869 Z M26.7183607,3.93868852 C26.6239344,3.8442623 26.4665574,3.8547541 26.3721311,3.94918033 L22.7,7.62131148 C22.6055738,7.7157377 22.595082,7.87311475 22.6895082,7.96754098 C22.7839344,8.06196721 22.9413115,8.05147541 23.0357377,7.95704918 L26.7078689,4.28491803 C26.8022951,4.1904918 26.8127869,4.03311475 26.7183607,3.93868852 Z M31.2088525,3.81278689 L30.2436066,4.77803279 L27.2219672,1.75639344 L28.1872131,0.791147541 C28.5754098,0.40295082 29.2259016,0.40295082 29.6140984,0.791147541 L31.2088525,2.38590164 C31.5970492,2.77409836 31.5970492,3.42459016 31.2088525,3.81278689 Z" id="pencil"></path>
        </g>
    </g>
</svg>